<?xml version="1.0" encoding="UTF-8"?>
<svg xmlns="http://www.w3.org/2000/svg" xmlns:xlink="http://www.w3.org/1999/xlink" width="252pt" height="252pt" viewBox="0 0 252 252" version="1.1">
<g id="surface1">
<path style=" stroke:none;fill-rule:evenodd;fill:rgb(100%,100%,100%);fill-opacity:1;" d="M 126.007812 37.910156 C 174.652344 37.910156 214.089844 77.347656 214.089844 125.992188 C 214.089844 174.636719 174.652344 214.074219 126.007812 214.074219 C 77.363281 214.074219 37.910156 174.652344 37.910156 126.007812 C 37.910156 77.363281 77.363281 37.910156 126.007812 37.910156 Z M 126.007812 37.910156 "/>
<path style=" stroke:none;fill-rule:evenodd;fill:rgb(0%,36.078431%,20%);fill-opacity:1;" d="M 126.007812 0 C 195.601562 0 252.019531 56.417969 252.019531 126.007812 C 252.019531 195.601562 195.601562 252.019531 126.007812 252.019531 C 56.417969 252 0 195.601562 0 126.007812 C 0 56.417969 56.417969 0 126.007812 0 Z M 126.007812 41.039062 C 172.9375 41.039062 210.960938 79.078125 210.960938 125.992188 C 210.960938 172.902344 172.921875 210.941406 126.007812 210.941406 C 79.097656 210.941406 41.039062 172.921875 41.039062 126.007812 C 41.039062 79.097656 79.078125 41.039062 126.007812 41.039062 Z M 126.007812 41.039062 "/>
<path style=" stroke:none;fill-rule:evenodd;fill:rgb(100%,100%,100%);fill-opacity:1;" d="M 110.929688 223.429688 L 108.714844 236.214844 L 105.191406 235.597656 L 106.644531 227.230469 C 105.992188 227.566406 105.378906 227.808594 104.800781 227.996094 C 104.222656 228.179688 103.496094 228.3125 102.65625 228.40625 L 103.140625 225.554688 C 104.390625 225.367188 105.394531 225.070312 106.140625 224.640625 C 106.886719 224.210938 107.519531 223.632812 108.023438 222.90625 Z M 114.082031 234.070312 L 117.640625 233.902344 C 117.695312 234.386719 117.828125 234.761719 118.03125 234.964844 C 118.238281 235.1875 118.5 235.300781 118.816406 235.320312 C 119.394531 235.355469 119.839844 235.113281 120.214844 234.574219 C 120.472656 234.164062 120.714844 233.289062 120.941406 231.925781 C 120.472656 232.335938 120.027344 232.617188 119.5625 232.785156 C 119.09375 232.953125 118.574219 233.007812 117.996094 232.972656 C 116.859375 232.878906 115.925781 232.410156 115.199219 231.535156 C 114.472656 230.660156 114.15625 229.617188 114.25 228.367188 C 114.304688 227.527344 114.566406 226.765625 115.03125 226.09375 C 115.480469 225.441406 116.074219 224.9375 116.800781 224.640625 C 117.527344 224.339844 118.421875 224.230469 119.484375 224.304688 C 120.753906 224.398438 121.761719 224.695312 122.503906 225.199219 C 123.25 225.703125 123.808594 226.429688 124.203125 227.417969 C 124.59375 228.40625 124.722656 229.671875 124.613281 231.238281 C 124.445312 233.53125 123.828125 235.171875 122.785156 236.175781 C 121.742188 237.164062 120.363281 237.59375 118.648438 237.460938 C 117.640625 237.386719 116.839844 237.203125 116.28125 236.921875 C 115.722656 236.640625 115.253906 236.269531 114.902344 235.785156 C 114.492188 235.355469 114.230469 234.761719 114.082031 234.070312 Z M 121.015625 228.890625 C 121.070312 228.199219 120.941406 227.640625 120.621094 227.230469 C 120.304688 226.820312 119.894531 226.578125 119.394531 226.539062 C 118.925781 226.503906 118.515625 226.652344 118.179688 226.988281 C 117.847656 227.324219 117.640625 227.828125 117.605469 228.535156 C 117.546875 229.242188 117.660156 229.800781 117.957031 230.210938 C 118.257812 230.605469 118.628906 230.828125 119.113281 230.863281 C 119.617188 230.902344 120.046875 230.753906 120.398438 230.417969 C 120.773438 230.082031 120.976562 229.578125 121.015625 228.890625 Z M 127.238281 224.863281 L 135.625 224.230469 L 135.832031 227.0625 L 130.148438 227.492188 L 129.996094 229.410156 C 130.371094 229.207031 130.742188 229.039062 131.132812 228.90625 C 131.507812 228.777344 131.878906 228.703125 132.273438 228.683594 C 133.539062 228.589844 134.601562 228.890625 135.457031 229.597656 C 136.316406 230.304688 136.78125 231.238281 136.875 232.410156 C 136.929688 233.230469 136.800781 234.035156 136.445312 234.816406 C 136.09375 235.597656 135.570312 236.234375 134.84375 236.679688 C 134.117188 237.128906 133.183594 237.40625 132.011719 237.5 C 131.171875 237.554688 130.445312 237.539062 129.828125 237.425781 C 129.214844 237.3125 128.691406 237.109375 128.246094 236.828125 C 127.796875 236.550781 127.445312 236.214844 127.144531 235.839844 C 126.847656 235.46875 126.605469 234.984375 126.382812 234.386719 L 129.921875 233.734375 C 130.054688 234.292969 130.296875 234.722656 130.632812 235.003906 C 130.96875 235.28125 131.359375 235.394531 131.804688 235.355469 C 132.308594 235.320312 132.699219 235.09375 132.980469 234.703125 C 133.277344 234.3125 133.390625 233.734375 133.332031 232.988281 C 133.277344 232.226562 133.074219 231.683594 132.71875 231.367188 C 132.363281 231.03125 131.917969 230.902344 131.394531 230.9375 C 131.058594 230.957031 130.726562 231.070312 130.425781 231.273438 C 130.203125 231.40625 129.960938 231.648438 129.699219 232 L 126.660156 231.796875 Z M 140.601562 229.617188 C 140.007812 229.429688 139.539062 229.167969 139.242188 228.851562 C 138.8125 228.421875 138.550781 227.882812 138.441406 227.25 C 138.253906 226.207031 138.609375 225.253906 139.484375 224.417969 C 140.175781 223.765625 141.144531 223.335938 142.410156 223.128906 C 144.085938 222.851562 145.390625 222.945312 146.304688 223.445312 C 147.21875 223.949219 147.757812 224.675781 147.925781 225.644531 C 148.019531 226.222656 147.945312 226.765625 147.722656 227.324219 C 147.535156 227.734375 147.21875 228.144531 146.773438 228.574219 C 147.5 228.777344 148.09375 229.132812 148.523438 229.597656 C 148.953125 230.082031 149.214844 230.640625 149.324219 231.292969 C 149.4375 231.925781 149.382812 232.523438 149.195312 233.140625 C 148.988281 233.734375 148.710938 234.21875 148.355469 234.59375 C 147.984375 234.964844 147.5 235.261719 146.902344 235.523438 C 146.304688 235.765625 145.636719 235.953125 144.925781 236.082031 C 143.601562 236.308594 142.558594 236.324219 141.796875 236.140625 C 141.03125 235.933594 140.433594 235.582031 139.949219 235.019531 C 139.484375 234.480469 139.1875 233.828125 139.054688 233.0625 C 138.925781 232.320312 139 231.667969 139.242188 231.105469 C 139.464844 230.492188 139.933594 230.007812 140.601562 229.617188 Z M 141.738281 226.875 C 141.8125 227.304688 142.019531 227.640625 142.335938 227.863281 C 142.652344 228.085938 143.042969 228.144531 143.492188 228.070312 C 143.882812 227.996094 144.199219 227.808594 144.40625 227.511719 C 144.628906 227.191406 144.683594 226.839844 144.628906 226.429688 C 144.554688 226 144.347656 225.664062 144.050781 225.441406 C 143.734375 225.21875 143.359375 225.144531 142.949219 225.21875 C 142.523438 225.292969 142.207031 225.480469 141.980469 225.796875 C 141.738281 226.09375 141.664062 226.449219 141.738281 226.875 Z M 142.484375 232.320312 C 142.578125 232.878906 142.820312 233.289062 143.230469 233.585938 C 143.621094 233.882812 144.050781 233.996094 144.480469 233.921875 C 144.890625 233.847656 145.242188 233.605469 145.503906 233.195312 C 145.765625 232.785156 145.859375 232.300781 145.765625 231.742188 C 145.671875 231.183594 145.429688 230.753906 145.039062 230.453125 C 144.648438 230.15625 144.21875 230.042969 143.789062 230.121094 C 143.359375 230.195312 143.007812 230.4375 142.746094 230.828125 C 142.464844 231.238281 142.375 231.742188 142.484375 232.320312 Z M 142.484375 232.320312 "/>
<path style=" stroke:none;fill-rule:evenodd;fill:rgb(100%,100%,100%);fill-opacity:1;" d="M 63.667969 202.574219 L 63.347656 202.910156 L 63.257812 202.816406 C 62.976562 202.554688 62.640625 202.40625 62.25 202.332031 C 61.839844 202.273438 61.375 202.292969 60.796875 202.421875 L 56.378906 203.375 L 54.960938 209.207031 C 54.832031 209.730469 54.792969 210.175781 54.871094 210.550781 C 54.945312 210.921875 55.113281 211.238281 55.390625 211.5 L 55.429688 211.539062 L 55.113281 211.890625 L 50.097656 207.230469 L 50.414062 206.878906 L 50.507812 206.972656 C 50.714844 207.15625 50.898438 207.289062 51.046875 207.34375 C 51.199219 207.398438 51.308594 207.382812 51.402344 207.289062 C 51.476562 207.195312 51.550781 207.101562 51.609375 207.007812 C 51.664062 206.914062 51.699219 206.804688 51.71875 206.671875 L 52.484375 203.542969 L 49.5 204.195312 C 49.390625 204.214844 49.277344 204.269531 49.167969 204.324219 C 49.054688 204.378906 48.960938 204.457031 48.867188 204.566406 C 48.738281 204.714844 48.699219 204.902344 48.773438 205.125 C 48.847656 205.351562 49.015625 205.59375 49.277344 205.851562 L 48.960938 206.1875 L 45.960938 203.394531 L 46.277344 203.058594 C 46.59375 203.335938 46.96875 203.503906 47.414062 203.597656 C 47.863281 203.691406 48.328125 203.671875 48.847656 203.5625 L 52.707031 202.683594 L 54.199219 196.664062 C 54.328125 196.125 54.382812 195.621094 54.347656 195.15625 C 54.308594 194.6875 54.199219 194.371094 54.011719 194.203125 L 53.992188 194.1875 L 54.308594 193.851562 L 59.15625 198.359375 L 58.839844 198.695312 C 58.597656 198.472656 58.375 198.324219 58.207031 198.285156 C 58.019531 198.25 57.871094 198.285156 57.738281 198.433594 C 57.609375 198.566406 57.515625 198.789062 57.441406 199.105469 C 57.441406 199.125 57.441406 199.144531 57.441406 199.144531 L 56.601562 202.535156 L 60.03125 201.789062 C 60.199219 201.753906 60.332031 201.714844 60.460938 201.640625 C 60.574219 201.585938 60.664062 201.511719 60.738281 201.4375 C 60.90625 201.25 60.945312 201.042969 60.871094 200.820312 C 60.796875 200.597656 60.589844 200.316406 60.253906 200.019531 L 60.164062 199.945312 L 60.480469 199.609375 Z M 48.363281 190.496094 C 48.847656 190.066406 49.128906 189.675781 49.167969 189.304688 C 49.203125 188.949219 49.054688 188.519531 48.679688 188.054688 L 49.035156 187.757812 L 53.75 193.179688 L 53.398438 193.476562 C 52.988281 193.050781 52.59375 192.824219 52.242188 192.824219 C 51.867188 192.824219 51.441406 193.03125 50.957031 193.460938 L 44.859375 198.753906 C 44.375 199.179688 44.097656 199.570312 44.058594 199.945312 C 44.023438 200.316406 44.171875 200.726562 44.542969 201.195312 L 44.191406 201.492188 L 39.472656 196.066406 L 39.828125 195.75 C 40.238281 196.179688 40.628906 196.402344 40.984375 196.402344 C 41.339844 196.402344 41.765625 196.199219 42.269531 195.769531 Z M 40.761719 189.414062 L 40.984375 189.730469 L 37.984375 192.789062 C 37.910156 192.863281 37.871094 192.917969 37.835938 192.9375 C 37.796875 192.957031 37.761719 192.992188 37.722656 193.011719 C 37.460938 193.199219 37.199219 193.273438 36.921875 193.234375 C 36.660156 193.199219 36.4375 193.050781 36.25 192.808594 C 36.0625 192.546875 36.007812 192.285156 36.0625 192.042969 C 36.121094 191.78125 36.269531 191.558594 36.546875 191.371094 C 36.585938 191.351562 36.621094 191.316406 36.679688 191.296875 C 36.714844 191.277344 36.789062 191.242188 36.867188 191.203125 Z M 42.605469 182.519531 C 42.753906 182.480469 42.886719 182.445312 42.996094 182.40625 C 43.109375 182.371094 43.203125 182.3125 43.296875 182.277344 C 43.574219 182.109375 43.722656 181.902344 43.742188 181.644531 C 43.761719 181.402344 43.648438 181.082031 43.425781 180.710938 L 43.332031 180.5625 L 43.722656 180.320312 L 45.753906 183.5625 L 45.363281 183.804688 C 45.195312 183.542969 44.972656 183.375 44.691406 183.28125 C 44.414062 183.191406 44.039062 183.191406 43.59375 183.28125 L 31.964844 185.40625 L 31.21875 184.214844 L 38.355469 174.578125 C 38.617188 174.226562 38.765625 173.925781 38.804688 173.703125 C 38.839844 173.480469 38.785156 173.253906 38.636719 173.011719 L 39.027344 172.769531 L 42.570312 178.4375 L 42.175781 178.679688 C 41.824219 178.121094 41.5625 177.785156 41.394531 177.671875 C 41.226562 177.578125 41.023438 177.597656 40.777344 177.746094 C 40.703125 177.804688 40.613281 177.859375 40.535156 177.933594 C 40.460938 178.007812 40.386719 178.082031 40.332031 178.175781 L 38.839844 180.078125 L 40.59375 182.890625 Z M 39.734375 183.078125 L 38.300781 180.785156 L 35.972656 183.804688 Z M 28.460938 174.597656 C 27.863281 174.859375 27.492188 175.175781 27.339844 175.492188 C 27.191406 175.828125 27.230469 176.273438 27.433594 176.816406 L 27.007812 177.003906 L 24.863281 172.195312 L 29.128906 163.695312 L 24.507812 165.761719 C 23.914062 166.023438 23.539062 166.324219 23.390625 166.65625 C 23.242188 166.992188 23.277344 167.421875 23.503906 168 L 23.074219 168.1875 L 21.394531 164.441406 L 21.824219 164.253906 C 22.085938 164.777344 22.382812 165.109375 22.738281 165.222656 C 23.09375 165.335938 23.558594 165.261719 24.15625 165 L 33.640625 160.789062 L 34.21875 162.09375 L 28.402344 173.703125 L 35.46875 170.554688 C 36.0625 170.292969 36.4375 169.996094 36.585938 169.660156 C 36.734375 169.324219 36.699219 168.875 36.492188 168.335938 L 36.921875 168.148438 L 38.597656 171.894531 L 38.171875 172.082031 C 37.910156 171.558594 37.609375 171.222656 37.257812 171.113281 C 36.902344 171 36.4375 171.074219 35.839844 171.335938 Z M 24.285156 143.957031 L 18.65625 145.148438 C 18.023438 145.28125 17.59375 145.503906 17.371094 145.785156 C 17.164062 146.082031 17.089844 146.511719 17.183594 147.089844 L 16.738281 147.183594 L 15.878906 143.175781 L 16.328125 143.082031 C 16.476562 143.660156 16.699219 144.03125 17.035156 144.21875 C 17.351562 144.40625 17.835938 144.421875 18.46875 144.292969 L 24.0625 143.101562 C 24.9375 142.914062 25.625 142.839844 26.167969 142.875 C 26.6875 142.914062 27.171875 143.042969 27.601562 143.269531 C 28.179688 143.585938 28.664062 144.070312 29.074219 144.738281 C 29.484375 145.410156 29.78125 146.195312 29.988281 147.125 C 30.34375 148.785156 30.230469 150.089844 29.652344 151.058594 C 29.074219 152.027344 28.03125 152.679688 26.519531 152.996094 L 20.59375 154.265625 C 19.960938 154.394531 19.53125 154.617188 19.308594 154.917969 C 19.085938 155.214844 19.027344 155.660156 19.121094 156.238281 L 18.675781 156.332031 L 17.183594 149.304688 L 17.632812 149.214844 C 17.78125 149.789062 18.023438 150.164062 18.339844 150.351562 C 18.65625 150.535156 19.121094 150.554688 19.773438 150.425781 L 26.539062 148.988281 C 27.492188 148.785156 28.125 148.449219 28.476562 147.984375 C 28.832031 147.515625 28.925781 146.863281 28.738281 146.042969 C 28.535156 145.074219 28.050781 144.421875 27.324219 144.070312 C 26.578125 143.714844 25.570312 143.679688 24.285156 143.957031 Z M 17.613281 138.050781 C 16.960938 138.105469 16.511719 138.253906 16.253906 138.515625 C 15.992188 138.777344 15.878906 139.203125 15.898438 139.800781 L 15.433594 139.839844 L 15.058594 134.582031 L 21.992188 128.058594 L 16.941406 128.414062 C 16.289062 128.449219 15.84375 128.601562 15.582031 128.859375 C 15.339844 129.121094 15.207031 129.550781 15.226562 130.148438 L 14.761719 130.183594 L 14.480469 126.082031 L 14.949219 126.046875 C 15.023438 126.625 15.191406 127.035156 15.488281 127.257812 C 15.765625 127.480469 16.253906 127.574219 16.90625 127.539062 L 27.25 126.8125 L 27.339844 128.226562 L 17.890625 137.171875 L 25.609375 136.632812 C 26.261719 136.578125 26.707031 136.429688 26.96875 136.167969 C 27.230469 135.90625 27.339844 135.476562 27.324219 134.878906 L 27.789062 134.84375 L 28.066406 138.925781 L 27.601562 138.960938 C 27.546875 138.382812 27.359375 137.976562 27.082031 137.75 C 26.78125 137.527344 26.316406 137.433594 25.664062 137.472656 Z M 25.382812 117.863281 C 26.035156 117.921875 26.503906 117.828125 26.78125 117.605469 C 27.0625 117.378906 27.25 116.96875 27.324219 116.375 L 27.789062 116.410156 L 27.285156 123.585938 L 26.820312 123.550781 C 26.839844 122.953125 26.707031 122.523438 26.464844 122.261719 C 26.203125 122.003906 25.757812 121.851562 25.105469 121.796875 L 17.054688 121.238281 C 16.402344 121.199219 15.933594 121.292969 15.636719 121.519531 C 15.339844 121.742188 15.171875 122.152344 15.097656 122.730469 L 14.628906 122.691406 L 15.132812 115.515625 L 15.617188 115.554688 C 15.601562 116.148438 15.730469 116.578125 15.972656 116.839844 C 16.214844 117.101562 16.679688 117.25 17.3125 117.285156 Z M 29.09375 109.382812 L 17.371094 111.882812 C 16.792969 112.011719 16.402344 112.160156 16.175781 112.347656 C 15.953125 112.535156 15.804688 112.796875 15.730469 113.167969 L 15.265625 113.09375 L 16.402344 106.609375 L 16.867188 106.683594 L 16.847656 106.792969 C 16.773438 107.183594 16.773438 107.464844 16.847656 107.652344 C 16.921875 107.835938 17.070312 107.949219 17.3125 107.988281 C 17.371094 108.003906 17.445312 108.003906 17.539062 107.988281 C 17.613281 107.988281 17.722656 107.96875 17.890625 107.949219 L 24.507812 106.550781 L 19.066406 103.105469 C 18.9375 103.011719 18.804688 102.953125 18.695312 102.917969 C 18.582031 102.878906 18.488281 102.84375 18.394531 102.824219 C 18.132812 102.785156 17.929688 102.859375 17.742188 103.046875 C 17.574219 103.234375 17.445312 103.570312 17.332031 104.015625 L 16.867188 103.941406 L 17.519531 100.214844 L 17.984375 100.289062 C 17.949219 100.605469 18.023438 100.921875 18.210938 101.238281 C 18.394531 101.558594 18.695312 101.835938 19.085938 102.078125 L 29.242188 108.582031 Z M 30.324219 101.574219 L 29.875 101.425781 C 30.042969 100.867188 30.023438 100.417969 29.839844 100.101562 C 29.652344 99.785156 29.242188 99.523438 28.628906 99.320312 L 20.949219 96.824219 C 20.332031 96.617188 19.847656 96.597656 19.511719 96.75 C 19.179688 96.898438 18.898438 97.25 18.695312 97.792969 L 18.265625 97.660156 L 21.695312 87.09375 L 24.992188 88.15625 L 24.863281 88.585938 C 23.894531 88.417969 23.148438 88.492188 22.625 88.828125 C 22.105469 89.164062 21.675781 89.851562 21.339844 90.894531 L 20.78125 92.609375 L 25.476562 94.140625 L 25.535156 93.933594 C 25.757812 93.261719 25.71875 92.722656 25.441406 92.273438 C 25.160156 91.828125 24.601562 91.417969 23.726562 91.046875 L 23.875 90.597656 L 29.671875 92.480469 L 29.523438 92.925781 C 28.589844 92.722656 27.863281 92.722656 27.378906 92.925781 C 26.894531 93.132812 26.539062 93.578125 26.316406 94.269531 L 26.261719 94.417969 L 29.988281 95.628906 C 30.566406 95.816406 30.957031 95.855469 31.144531 95.703125 C 31.328125 95.574219 31.535156 95.144531 31.777344 94.417969 C 32.148438 93.300781 32.1875 92.367188 31.90625 91.605469 C 31.628906 90.859375 30.996094 90.167969 30.007812 89.535156 L 30.175781 89.050781 L 33.769531 90.988281 Z M 31.21875 80.625 L 31.328125 80.402344 C 31.664062 79.695312 31.738281 79.078125 31.496094 78.539062 C 31.273438 78 30.753906 77.53125 29.914062 77.140625 C 29.054688 76.730469 28.347656 76.601562 27.789062 76.769531 C 27.230469 76.9375 26.746094 77.441406 26.355469 78.257812 Z M 35.058594 82.507812 C 35.671875 82.808594 36.136719 82.898438 36.492188 82.789062 C 36.847656 82.675781 37.164062 82.324219 37.460938 81.761719 L 37.890625 81.949219 L 34.683594 88.527344 L 34.273438 88.324219 C 34.515625 87.785156 34.574219 87.355469 34.421875 87 C 34.273438 86.664062 33.921875 86.347656 33.34375 86.050781 L 26.09375 82.507812 C 25.496094 82.230469 25.03125 82.136719 24.675781 82.230469 C 24.320312 82.339844 24.003906 82.640625 23.726562 83.160156 L 23.316406 82.957031 L 26.390625 76.65625 C 27.136719 75.109375 27.976562 74.085938 28.886719 73.527344 C 29.800781 72.984375 30.753906 72.949219 31.757812 73.433594 C 32.429688 73.769531 32.914062 74.253906 33.210938 74.886719 C 33.511719 75.539062 33.585938 76.265625 33.4375 77.066406 L 38.488281 76.730469 C 39.027344 76.695312 39.4375 76.621094 39.699219 76.488281 C 39.960938 76.359375 40.183594 76.152344 40.351562 75.855469 L 40.761719 76.058594 L 38.710938 80.273438 L 32.09375 80.570312 L 31.90625 80.945312 Z M 41.878906 74.71875 L 38.09375 72.070312 L 38.375 71.679688 C 39.363281 72.183594 40.40625 72.296875 41.488281 72.015625 C 42.570312 71.738281 43.425781 71.140625 44.058594 70.246094 C 44.46875 69.667969 44.65625 69.089844 44.636719 68.550781 C 44.617188 67.992188 44.394531 67.582031 43.964844 67.28125 C 43.3125 66.816406 42.007812 67.1875 40.070312 68.363281 C 40.050781 68.382812 40.050781 68.382812 40.050781 68.382812 C 39.941406 68.457031 39.753906 68.566406 39.53125 68.71875 C 38.207031 69.539062 37.144531 69.964844 36.324219 69.984375 C 35.972656 69.984375 35.617188 69.945312 35.28125 69.835938 C 34.945312 69.742188 34.628906 69.574219 34.332031 69.371094 C 33.378906 68.699219 32.839844 67.785156 32.726562 66.628906 C 32.617188 65.472656 32.953125 64.320312 33.734375 63.199219 C 34.164062 62.585938 34.742188 62.027344 35.449219 61.542969 C 36.15625 61.058594 36.53125 60.757812 36.566406 60.703125 C 36.679688 60.535156 36.714844 60.386719 36.660156 60.238281 C 36.605469 60.105469 36.457031 59.921875 36.195312 59.714844 L 36.472656 59.304688 L 39.808594 61.636719 L 39.566406 61.988281 C 38.671875 61.578125 37.761719 61.503906 36.847656 61.785156 C 35.914062 62.042969 35.167969 62.605469 34.589844 63.425781 C 34.238281 63.945312 34.050781 64.429688 34.070312 64.914062 C 34.089844 65.398438 34.292969 65.773438 34.667969 66.035156 C 35.226562 66.425781 36.25 66.144531 37.703125 65.214844 C 37.777344 65.15625 37.851562 65.121094 37.890625 65.101562 C 38.953125 64.429688 39.71875 63.984375 40.203125 63.757812 C 40.667969 63.535156 41.078125 63.40625 41.429688 63.347656 C 41.953125 63.273438 42.4375 63.292969 42.921875 63.40625 C 43.386719 63.515625 43.835938 63.722656 44.265625 64.019531 C 45.289062 64.730469 45.847656 65.679688 45.980469 66.871094 C 46.109375 68.066406 45.738281 69.257812 44.917969 70.433594 C 44.449219 71.101562 43.835938 71.71875 43.089844 72.277344 C 42.34375 72.835938 41.953125 73.152344 41.917969 73.207031 C 41.785156 73.375 41.75 73.5625 41.804688 73.769531 C 41.839844 73.953125 41.972656 74.140625 42.175781 74.328125 Z M 50.730469 58.859375 C 51.234375 59.285156 51.664062 59.472656 52.019531 59.472656 C 52.390625 59.453125 52.761719 59.230469 53.171875 58.800781 L 53.527344 59.101562 L 48.90625 64.617188 L 48.550781 64.320312 C 48.90625 63.851562 49.074219 63.425781 49.015625 63.070312 C 48.960938 62.714844 48.679688 62.324219 48.195312 61.894531 L 42.007812 56.695312 C 41.507812 56.285156 41.078125 56.082031 40.703125 56.097656 C 40.332031 56.117188 39.960938 56.339844 39.550781 56.769531 L 39.195312 56.472656 L 43.816406 50.972656 L 44.171875 51.273438 C 43.816406 51.757812 43.648438 52.167969 43.707031 52.519531 C 43.761719 52.875 44.023438 53.265625 44.527344 53.675781 Z M 54.292969 40.6875 L 56.566406 43.035156 L 56.25 43.351562 C 55.578125 42.773438 54.960938 42.492188 54.402344 42.492188 C 53.84375 42.492188 53.265625 42.792969 52.652344 43.386719 L 52.054688 43.949219 L 58.691406 50.824219 C 59.136719 51.289062 59.546875 51.53125 59.921875 51.570312 C 60.273438 51.609375 60.683594 51.421875 61.132812 51.011719 L 61.449219 51.347656 L 56.285156 56.339844 L 55.96875 56.007812 C 56.378906 55.597656 56.566406 55.1875 56.566406 54.8125 C 56.546875 54.441406 56.324219 54.011719 55.875 53.546875 L 49.242188 46.667969 L 48.644531 47.246094 C 48.027344 47.84375 47.710938 48.421875 47.695312 48.960938 C 47.675781 49.519531 47.9375 50.136719 48.496094 50.824219 L 48.160156 51.140625 L 45.847656 48.832031 Z M 67.5625 39.382812 L 69.667969 42.402344 C 70.039062 42.941406 70.414062 43.238281 70.75 43.332031 C 71.101562 43.425781 71.53125 43.296875 72.035156 42.976562 L 72.296875 43.351562 L 66.40625 47.46875 L 66.144531 47.097656 C 66.609375 46.742188 66.871094 46.390625 66.910156 46.015625 C 66.945312 45.644531 66.777344 45.195312 66.40625 44.65625 L 64.730469 42.25 L 58.800781 39.4375 C 58.296875 39.195312 57.886719 39.066406 57.589844 39.066406 C 57.292969 39.066406 56.992188 39.15625 56.714844 39.34375 L 56.433594 38.953125 L 61.894531 35.132812 L 62.175781 35.523438 C 61.894531 35.710938 61.710938 35.894531 61.636719 36.046875 C 61.558594 36.195312 61.558594 36.34375 61.671875 36.492188 C 61.710938 36.546875 61.765625 36.605469 61.820312 36.660156 C 61.878906 36.714844 61.953125 36.753906 62.042969 36.789062 L 66.628906 39.101562 L 66.050781 34.367188 C 66.050781 34.257812 66.015625 34.125 65.976562 34.015625 C 65.941406 33.902344 65.882812 33.808594 65.828125 33.714844 C 65.714844 33.546875 65.53125 33.472656 65.304688 33.511719 C 65.082031 33.546875 64.785156 33.679688 64.46875 33.902344 L 64.394531 33.957031 L 64.113281 33.566406 L 67.058594 31.496094 L 67.339844 31.890625 L 67.261719 31.945312 C 67.078125 32.074219 66.929688 32.261719 66.851562 32.523438 C 66.777344 32.765625 66.761719 33.0625 66.816406 33.4375 Z M 85.175781 35.691406 C 86.03125 35.320312 86.480469 34.609375 86.535156 33.566406 C 86.589844 32.523438 86.238281 31.179688 85.507812 29.503906 C 84.652344 27.601562 83.832031 26.296875 83.03125 25.589844 C 82.230469 24.882812 81.371094 24.730469 80.496094 25.125 C 79.640625 25.515625 79.191406 26.222656 79.152344 27.285156 C 79.117188 28.347656 79.488281 29.765625 80.292969 31.554688 C 81.074219 33.324219 81.875 34.554688 82.695312 35.242188 C 83.476562 35.914062 84.316406 36.0625 85.175781 35.691406 Z M 89.179688 27.582031 C 90 29.429688 90.09375 31.164062 89.421875 32.765625 C 88.769531 34.367188 87.464844 35.597656 85.527344 36.472656 C 83.589844 37.332031 81.800781 37.480469 80.179688 36.882812 C 78.558594 36.304688 77.328125 35.074219 76.507812 33.230469 C 75.6875 31.367188 75.59375 29.632812 76.246094 28.050781 C 76.898438 26.445312 78.203125 25.214844 80.140625 24.359375 C 82.097656 23.484375 83.886719 23.351562 85.507812 23.929688 C 87.113281 24.488281 88.34375 25.71875 89.179688 27.582031 Z M 93.691406 32.652344 L 93.578125 32.207031 C 94.140625 32.039062 94.511719 31.796875 94.679688 31.460938 C 94.847656 31.125 94.847656 30.640625 94.679688 30.023438 L 92.59375 22.214844 C 92.425781 21.582031 92.183594 21.171875 91.882812 20.96875 C 91.566406 20.761719 91.136719 20.726562 90.558594 20.855469 L 90.449219 20.410156 L 101.015625 17.574219 L 101.910156 20.910156 L 101.425781 21.042969 C 101.035156 20.128906 100.550781 19.550781 99.992188 19.289062 C 99.433594 19.027344 98.613281 19.046875 97.550781 19.328125 L 96.058594 19.738281 L 97.34375 24.527344 L 97.566406 24.472656 C 98.3125 24.265625 98.835938 23.929688 99.097656 23.464844 C 99.375 23 99.449219 22.328125 99.300781 21.46875 L 99.785156 21.339844 L 101.257812 26.855469 L 100.773438 26.988281 C 100.457031 26.167969 100.066406 25.625 99.601562 25.367188 C 99.132812 25.105469 98.519531 25.066406 97.753906 25.253906 L 97.53125 25.308594 L 98.519531 28.964844 C 98.6875 29.597656 98.929688 30.007812 99.246094 30.210938 C 99.5625 30.417969 99.992188 30.453125 100.570312 30.324219 L 100.699219 30.769531 Z M 110.726562 28.8125 L 110.167969 24.230469 L 110.632812 24.171875 C 110.914062 25.234375 111.527344 26.09375 112.460938 26.707031 C 113.390625 27.324219 114.417969 27.566406 115.515625 27.433594 C 116.222656 27.339844 116.785156 27.117188 117.175781 26.726562 C 117.566406 26.355469 117.734375 25.886719 117.679688 25.367188 C 117.585938 24.566406 116.449219 23.855469 114.269531 23.203125 C 114.25 23.203125 114.230469 23.203125 114.230469 23.203125 C 114.101562 23.167969 113.894531 23.109375 113.632812 23.035156 C 112.125 22.609375 111.097656 22.105469 110.539062 21.507812 C 110.296875 21.246094 110.09375 20.949219 109.945312 20.632812 C 109.792969 20.316406 109.703125 19.980469 109.644531 19.605469 C 109.496094 18.453125 109.832031 17.445312 110.613281 16.570312 C 111.398438 15.710938 112.476562 15.191406 113.839844 15.023438 C 114.585938 14.929688 115.367188 14.984375 116.222656 15.191406 C 117.0625 15.394531 117.527344 15.46875 117.605469 15.46875 C 117.808594 15.449219 117.9375 15.359375 118.015625 15.226562 C 118.089844 15.097656 118.105469 14.855469 118.089844 14.519531 L 118.589844 14.460938 L 119.09375 18.507812 L 118.667969 18.5625 C 118.367188 17.632812 117.808594 16.90625 116.988281 16.402344 C 116.167969 15.898438 115.253906 15.691406 114.269531 15.824219 C 113.632812 15.898438 113.148438 16.101562 112.8125 16.4375 C 112.460938 16.773438 112.328125 17.164062 112.386719 17.632812 C 112.460938 18.300781 113.355469 18.878906 115.03125 19.347656 C 115.125 19.363281 115.199219 19.402344 115.238281 19.402344 C 116.449219 19.738281 117.285156 20.015625 117.769531 20.222656 C 118.257812 20.425781 118.628906 20.632812 118.890625 20.855469 C 119.28125 21.191406 119.597656 21.582031 119.839844 22.011719 C 120.0625 22.441406 120.214844 22.90625 120.289062 23.425781 C 120.4375 24.65625 120.121094 25.71875 119.320312 26.613281 C 118.515625 27.492188 117.398438 28.03125 115.964844 28.199219 C 115.144531 28.292969 114.285156 28.253906 113.371094 28.085938 C 112.460938 27.917969 111.976562 27.824219 111.902344 27.84375 C 111.695312 27.863281 111.527344 27.957031 111.417969 28.125 C 111.304688 28.292969 111.25 28.496094 111.25 28.777344 Z M 135.046875 24.882812 C 134.414062 25.851562 133.632812 26.578125 132.699219 27.0625 C 131.769531 27.546875 130.726562 27.789062 129.550781 27.769531 C 128.691406 27.75 127.890625 27.601562 127.164062 27.285156 C 126.4375 26.988281 125.765625 26.539062 125.207031 25.960938 C 124.574219 25.328125 124.089844 24.601562 123.773438 23.746094 C 123.457031 22.886719 123.308594 21.9375 123.324219 20.910156 C 123.363281 18.972656 123.996094 17.40625 125.226562 16.214844 C 126.457031 15.023438 128.039062 14.445312 129.960938 14.480469 C 130.78125 14.5 131.582031 14.648438 132.382812 14.929688 C 133.183594 15.207031 133.59375 15.339844 133.652344 15.339844 C 133.835938 15.339844 133.984375 15.300781 134.078125 15.207031 C 134.171875 15.113281 134.265625 14.929688 134.339844 14.667969 L 134.824219 14.667969 L 134.75 18.730469 L 134.265625 18.730469 C 134.117188 17.722656 133.742188 16.921875 133.167969 16.363281 C 132.589844 15.804688 131.84375 15.507812 130.949219 15.488281 C 129.867188 15.46875 129.027344 15.917969 128.449219 16.828125 C 127.875 17.742188 127.574219 19.105469 127.539062 20.894531 C 127.5 22.773438 127.761719 24.191406 128.300781 25.160156 C 128.84375 26.128906 129.644531 26.632812 130.726562 26.652344 C 131.414062 26.671875 132.066406 26.484375 132.699219 26.113281 C 133.332031 25.738281 133.929688 25.179688 134.453125 24.453125 Z M 142.691406 26.539062 C 142.597656 27.191406 142.632812 27.660156 142.839844 27.957031 C 143.042969 28.253906 143.433594 28.476562 144.011719 28.609375 L 143.9375 29.074219 L 136.835938 27.957031 L 136.914062 27.492188 C 137.507812 27.566406 137.9375 27.472656 138.21875 27.25 C 138.496094 27.023438 138.703125 26.578125 138.792969 25.945312 L 140.0625 17.964844 C 140.15625 17.3125 140.117188 16.847656 139.914062 16.53125 C 139.707031 16.214844 139.316406 16.007812 138.738281 15.898438 L 138.8125 15.433594 L 145.914062 16.550781 L 145.839844 17.015625 C 145.242188 16.960938 144.796875 17.035156 144.515625 17.257812 C 144.238281 17.480469 144.050781 17.929688 143.9375 18.5625 Z M 145.558594 29.261719 L 145.671875 28.8125 C 146.25 28.945312 146.695312 28.90625 146.996094 28.683594 C 147.292969 28.476562 147.535156 28.050781 147.683594 27.417969 L 149.640625 19.589844 C 149.789062 18.953125 149.789062 18.46875 149.625 18.152344 C 149.457031 17.835938 149.082031 17.574219 148.523438 17.40625 L 148.636719 16.960938 L 159.425781 19.644531 L 158.589844 23 L 158.160156 22.886719 C 158.253906 21.898438 158.121094 21.152344 157.75 20.667969 C 157.375 20.164062 156.667969 19.792969 155.585938 19.53125 L 153.835938 19.105469 L 152.640625 23.894531 L 152.828125 23.949219 C 153.5 24.117188 154.058594 24.042969 154.488281 23.746094 C 154.917969 23.425781 155.289062 22.832031 155.605469 21.957031 L 156.070312 22.066406 L 154.597656 27.976562 L 154.132812 27.863281 C 154.28125 26.914062 154.226562 26.203125 153.984375 25.71875 C 153.742188 25.253906 153.277344 24.917969 152.585938 24.75 L 152.4375 24.714844 L 151.488281 28.515625 C 151.339844 29.113281 151.339844 29.503906 151.488281 29.671875 C 151.636719 29.859375 152.082031 30.023438 152.808594 30.210938 C 153.945312 30.492188 154.898438 30.472656 155.625 30.15625 C 156.351562 29.839844 157.003906 29.148438 157.5625 28.105469 L 158.066406 28.234375 L 156.390625 31.964844 Z M 164.570312 23.949219 C 164.832031 23.351562 164.886719 22.867188 164.777344 22.53125 C 164.664062 22.179688 164.328125 21.878906 163.804688 21.636719 L 163.992188 21.210938 L 168.839844 23.261719 L 171.503906 32.390625 L 173.480469 27.734375 C 173.742188 27.136719 173.796875 26.671875 173.683594 26.316406 C 173.574219 25.980469 173.238281 25.683594 172.695312 25.421875 L 172.882812 24.992188 L 176.648438 26.597656 L 176.460938 27.023438 C 175.902344 26.820312 175.472656 26.78125 175.136719 26.949219 C 174.804688 27.097656 174.503906 27.492188 174.261719 28.085938 L 170.199219 37.628906 L 168.894531 37.070312 L 165.222656 24.601562 L 162.203125 31.722656 C 161.941406 32.316406 161.886719 32.785156 162 33.136719 C 162.109375 33.472656 162.445312 33.789062 162.988281 34.050781 L 162.800781 34.480469 L 159.015625 32.875 L 159.203125 32.449219 C 159.742188 32.652344 160.191406 32.691406 160.527344 32.523438 C 160.863281 32.375 161.160156 31.980469 161.402344 31.386719 Z M 184.699219 43.222656 C 183.675781 43.742188 182.628906 43.984375 181.566406 43.929688 C 180.523438 43.890625 179.5 43.554688 178.492188 42.960938 C 177.746094 42.511719 177.152344 41.972656 176.648438 41.355469 C 176.164062 40.722656 175.808594 40.015625 175.605469 39.230469 C 175.363281 38.375 175.324219 37.480469 175.472656 36.585938 C 175.621094 35.671875 175.976562 34.777344 176.5 33.902344 C 177.503906 32.242188 178.828125 31.199219 180.488281 30.789062 C 182.144531 30.378906 183.804688 30.660156 185.464844 31.648438 C 186.171875 32.074219 186.785156 32.597656 187.347656 33.230469 C 187.886719 33.863281 188.183594 34.199219 188.242188 34.238281 C 188.390625 34.332031 188.539062 34.367188 188.667969 34.332031 C 188.800781 34.292969 188.96875 34.179688 189.171875 33.996094 L 189.582031 34.238281 L 187.496094 37.722656 L 187.085938 37.480469 C 187.457031 36.53125 187.53125 35.652344 187.328125 34.871094 C 187.105469 34.089844 186.617188 33.472656 185.855469 33.007812 C 184.921875 32.449219 183.972656 32.429688 183.023438 32.933594 C 182.054688 33.4375 181.121094 34.460938 180.1875 35.988281 C 179.21875 37.59375 178.734375 38.953125 178.714844 40.070312 C 178.699219 41.1875 179.144531 42.007812 180.058594 42.570312 C 180.636719 42.921875 181.308594 43.089844 182.054688 43.070312 C 182.796875 43.070312 183.582031 42.867188 184.417969 42.511719 Z M 184.792969 46.761719 L 185.089844 46.40625 C 185.558594 46.761719 185.964844 46.910156 186.339844 46.855469 C 186.710938 46.800781 187.085938 46.519531 187.511719 46.015625 L 192.601562 39.734375 C 193.011719 39.230469 193.199219 38.785156 193.179688 38.429688 C 193.160156 38.058594 192.9375 37.683594 192.488281 37.292969 L 192.789062 36.941406 L 201.417969 43.929688 L 199.21875 46.59375 L 198.863281 46.316406 C 199.367188 45.457031 199.570312 44.730469 199.441406 44.132812 C 199.3125 43.519531 198.828125 42.886719 197.96875 42.175781 L 196.570312 41.039062 L 193.460938 44.878906 L 193.625 45.011719 C 194.167969 45.4375 194.6875 45.625 195.210938 45.511719 C 195.734375 45.421875 196.3125 45.027344 196.980469 44.359375 L 197.355469 44.65625 L 193.515625 49.390625 L 193.140625 49.089844 C 193.683594 48.289062 193.925781 47.621094 193.90625 47.097656 C 193.886719 46.574219 193.589844 46.074219 193.050781 45.625 L 192.9375 45.53125 L 190.457031 48.589844 C 190.066406 49.054688 189.917969 49.410156 189.972656 49.632812 C 190.03125 49.855469 190.363281 50.210938 190.941406 50.675781 C 191.855469 51.421875 192.714844 51.792969 193.515625 51.8125 C 194.316406 51.832031 195.191406 51.476562 196.144531 50.769531 L 196.554688 51.105469 L 193.460938 53.769531 Z M 203.617188 62.4375 C 203.804688 61.503906 204.046875 60.609375 204.324219 59.769531 C 204.605469 58.933594 204.941406 58.148438 205.3125 57.421875 C 204.976562 57.328125 204.660156 57.3125 204.363281 57.386719 C 204.0625 57.441406 203.785156 57.589844 203.523438 57.796875 C 203.242188 58.039062 202.984375 58.316406 202.777344 58.671875 C 202.574219 59.027344 202.421875 59.378906 202.347656 59.753906 C 202.273438 60.179688 202.273438 60.554688 202.347656 60.890625 C 202.421875 61.226562 202.554688 61.523438 202.777344 61.785156 C 202.890625 61.914062 203 62.027344 203.132812 62.136719 C 203.28125 62.230469 203.449219 62.34375 203.617188 62.4375 Z M 203.484375 63.347656 C 202.757812 63.199219 202.125 62.9375 201.546875 62.605469 C 200.96875 62.269531 200.46875 61.820312 200.039062 61.28125 C 199.40625 60.496094 199.125 59.660156 199.179688 58.765625 C 199.253906 57.871094 199.648438 57.125 200.375 56.527344 C 201.027344 56.007812 201.808594 55.746094 202.722656 55.765625 C 203.636719 55.78125 204.640625 56.082031 205.742188 56.660156 C 206.003906 56.25 206.246094 55.894531 206.46875 55.613281 C 206.710938 55.316406 206.933594 55.09375 207.15625 54.90625 C 207.996094 54.234375 208.910156 53.957031 209.898438 54.066406 C 210.886719 54.179688 211.722656 54.683594 212.433594 55.539062 C 212.972656 56.191406 213.234375 56.882812 213.214844 57.589844 C 213.214844 58.296875 212.933594 58.875 212.394531 59.304688 C 211.890625 59.714844 211.3125 59.882812 210.625 59.84375 C 209.933594 59.808594 209.152344 59.527344 208.21875 59.027344 C 207.902344 59.808594 207.660156 60.496094 207.472656 61.113281 C 207.289062 61.726562 207.15625 62.304688 207.066406 62.882812 C 207.511719 62.882812 207.921875 62.828125 208.277344 62.734375 C 208.628906 62.621094 208.929688 62.492188 209.152344 62.304688 C 209.375 62.121094 209.507812 61.933594 209.5625 61.726562 C 209.617188 61.523438 209.582031 61.300781 209.488281 61.019531 L 209.804688 60.757812 L 212.078125 63.554688 L 211.761719 63.816406 C 211.3125 63.347656 210.308594 63.238281 208.761719 63.460938 C 208.015625 63.574219 207.398438 63.628906 206.953125 63.683594 C 206.785156 64.320312 206.710938 64.859375 206.710938 65.304688 C 206.710938 65.753906 206.785156 66.070312 206.933594 66.257812 C 207.046875 66.386719 207.175781 66.5 207.324219 66.574219 C 207.472656 66.648438 207.660156 66.722656 207.882812 66.742188 L 207.941406 67.1875 C 206.859375 67.261719 206.019531 67.226562 205.425781 67.078125 C 204.828125 66.929688 204.363281 66.609375 204.007812 66.164062 C 203.726562 65.828125 203.542969 65.417969 203.46875 64.953125 C 203.355469 64.488281 203.375 63.964844 203.484375 63.347656 Z M 208.59375 58.207031 C 208.945312 58.375 209.300781 58.449219 209.65625 58.410156 C 210.007812 58.375 210.324219 58.242188 210.605469 58 C 211.035156 57.644531 211.351562 57.21875 211.519531 56.695312 C 211.6875 56.175781 211.667969 55.800781 211.464844 55.539062 C 211.332031 55.371094 211.164062 55.296875 210.941406 55.316406 C 210.71875 55.335938 210.511719 55.429688 210.289062 55.597656 C 210.027344 55.800781 209.75 56.136719 209.449219 56.601562 C 209.152344 57.070312 208.855469 57.609375 208.59375 58.207031 Z M 225.945312 76.804688 L 223.113281 78.445312 L 222.886719 78.054688 C 223.613281 77.53125 224.023438 77.011719 224.15625 76.46875 C 224.285156 75.929688 224.136719 75.296875 223.707031 74.550781 L 223.296875 73.84375 L 215.023438 78.613281 C 214.464844 78.949219 214.128906 79.285156 213.996094 79.621094 C 213.886719 79.957031 213.960938 80.402344 214.238281 80.945312 L 213.828125 81.1875 L 210.234375 74.960938 L 210.644531 74.738281 C 210.960938 75.242188 211.296875 75.519531 211.648438 75.59375 C 212.003906 75.667969 212.46875 75.539062 213.046875 75.222656 L 221.324219 70.433594 L 220.914062 69.722656 C 220.484375 68.976562 220 68.53125 219.476562 68.382812 C 218.957031 68.234375 218.285156 68.324219 217.484375 68.699219 L 217.242188 68.289062 L 220.074219 66.648438 Z M 215.710938 84.613281 L 216.140625 84.449219 C 216.382812 84.988281 216.664062 85.324219 217.015625 85.433594 C 217.371094 85.566406 217.835938 85.492188 218.453125 85.25 L 225.945312 82.230469 C 226.539062 81.988281 226.933594 81.6875 227.082031 81.371094 C 227.25 81.035156 227.230469 80.589844 227.027344 80.046875 L 227.453125 79.882812 L 231.609375 90.1875 L 228.40625 91.472656 L 228.238281 91.0625 C 229.09375 90.558594 229.617188 90.019531 229.800781 89.421875 C 229.988281 88.828125 229.878906 88.027344 229.46875 87 L 228.796875 85.324219 L 224.210938 87.167969 L 224.285156 87.355469 C 224.546875 88.007812 224.917969 88.398438 225.421875 88.566406 C 225.925781 88.734375 226.617188 88.679688 227.527344 88.417969 L 227.714844 88.863281 L 222.066406 91.136719 L 221.882812 90.691406 C 222.738281 90.242188 223.28125 89.796875 223.523438 89.3125 C 223.765625 88.847656 223.746094 88.269531 223.484375 87.597656 L 223.429688 87.449219 L 219.792969 88.921875 C 219.214844 89.144531 218.917969 89.367188 218.863281 89.609375 C 218.804688 89.832031 218.917969 90.300781 219.199219 90.988281 C 219.644531 92.089844 220.203125 92.835938 220.894531 93.226562 C 221.582031 93.617188 222.515625 93.746094 223.6875 93.578125 L 223.875 94.0625 L 219.886719 94.882812 Z M 225.871094 108.75 C 224.789062 108.378906 223.894531 107.78125 223.1875 107 C 222.476562 106.214844 222.011719 105.246094 221.75 104.109375 C 221.566406 103.269531 221.507812 102.453125 221.640625 101.667969 C 221.75 100.886719 222.03125 100.140625 222.460938 99.449219 C 222.90625 98.6875 223.523438 98.035156 224.265625 97.511719 C 225.03125 96.992188 225.90625 96.617188 226.914062 96.394531 C 228.796875 95.964844 230.472656 96.1875 231.925781 97.101562 C 233.382812 98.015625 234.332031 99.394531 234.761719 101.277344 C 234.945312 102.078125 235.003906 102.898438 234.910156 103.738281 C 234.835938 104.574219 234.796875 105.023438 234.796875 105.078125 C 234.835938 105.265625 234.910156 105.378906 235.039062 105.453125 C 235.152344 105.527344 235.355469 105.5625 235.636719 105.582031 L 235.746094 106.046875 L 231.777344 106.960938 L 231.667969 106.496094 C 232.617188 106.105469 233.289062 105.546875 233.699219 104.855469 C 234.109375 104.148438 234.21875 103.363281 234.015625 102.507812 C 233.773438 101.445312 233.140625 100.753906 232.09375 100.417969 C 231.070312 100.085938 229.671875 100.121094 227.921875 100.511719 C 226.09375 100.941406 224.769531 101.519531 223.949219 102.285156 C 223.128906 103.046875 222.851562 103.941406 223.09375 104.984375 C 223.242188 105.65625 223.578125 106.234375 224.097656 106.773438 C 224.621094 107.296875 225.3125 107.746094 226.148438 108.078125 Z M 226.375 116.523438 C 225.722656 116.578125 225.273438 116.746094 225.03125 117.007812 C 224.789062 117.269531 224.675781 117.695312 224.695312 118.3125 L 224.230469 118.347656 L 223.597656 111.191406 L 224.0625 111.15625 C 224.136719 111.734375 224.324219 112.144531 224.621094 112.367188 C 224.917969 112.589844 225.386719 112.664062 226.039062 112.609375 L 234.089844 111.902344 C 234.742188 111.84375 235.1875 111.675781 235.429688 111.417969 C 235.691406 111.15625 235.785156 110.707031 235.765625 110.128906 L 236.234375 110.09375 L 236.867188 117.25 L 236.398438 117.285156 C 236.324219 116.691406 236.140625 116.300781 235.839844 116.074219 C 235.542969 115.851562 235.078125 115.777344 234.425781 115.832031 L 231.105469 116.09375 L 231.441406 119.953125 L 234.761719 119.652344 C 235.414062 119.597656 235.859375 119.429688 236.101562 119.167969 C 236.34375 118.910156 236.457031 118.480469 236.4375 117.882812 L 236.902344 117.847656 L 237.539062 125.003906 L 237.070312 125.039062 C 236.996094 124.460938 236.828125 124.050781 236.53125 123.828125 C 236.234375 123.605469 235.765625 123.53125 235.113281 123.585938 L 227.0625 124.292969 C 226.410156 124.351562 225.964844 124.519531 225.703125 124.777344 C 225.441406 125.058594 225.347656 125.488281 225.367188 126.066406 L 224.902344 126.101562 L 224.265625 118.945312 L 224.734375 118.910156 C 224.808594 119.503906 224.992188 119.914062 225.292969 120.121094 C 225.589844 120.324219 226.054688 120.417969 226.707031 120.363281 L 230.511719 120.027344 L 230.175781 116.167969 Z M 234.796875 129.960938 C 235.449219 129.996094 235.914062 129.886719 236.195312 129.664062 C 236.476562 129.4375 236.660156 129.027344 236.71875 128.433594 L 237.183594 128.449219 L 236.902344 133.707031 L 229.242188 139.335938 L 234.292969 139.597656 C 234.945312 139.632812 235.414062 139.539062 235.691406 139.316406 C 235.972656 139.09375 236.140625 138.683594 236.195312 138.085938 L 236.660156 138.105469 L 236.457031 142.207031 L 235.992188 142.1875 C 235.992188 141.589844 235.859375 141.179688 235.597656 140.917969 C 235.339844 140.660156 234.890625 140.507812 234.238281 140.472656 L 223.875 139.933594 L 223.949219 138.515625 L 234.40625 130.816406 L 226.671875 130.40625 C 226.019531 130.371094 225.554688 130.464844 225.273438 130.707031 C 224.992188 130.929688 224.828125 131.339844 224.75 131.9375 L 224.285156 131.917969 L 224.507812 127.816406 L 224.976562 127.835938 C 224.957031 128.433594 225.085938 128.84375 225.347656 129.101562 C 225.609375 129.363281 226.074219 129.511719 226.726562 129.550781 Z M 222.03125 150.292969 C 221.808594 151.1875 222.085938 151.992188 222.871094 152.679688 C 223.652344 153.351562 224.9375 153.929688 226.707031 154.355469 C 228.738281 154.859375 230.269531 155.007812 231.3125 154.804688 C 232.355469 154.597656 233.007812 154.023438 233.230469 153.089844 C 233.457031 152.175781 233.175781 151.375 232.355469 150.703125 C 231.554688 150.035156 230.195312 149.457031 228.292969 148.972656 C 226.410156 148.503906 224.957031 148.375 223.914062 148.597656 C 222.90625 148.820312 222.273438 149.382812 222.03125 150.292969 Z M 225.964844 158.4375 C 224.007812 157.953125 222.589844 156.949219 221.730469 155.4375 C 220.875 153.929688 220.707031 152.140625 221.210938 150.089844 C 221.730469 148.039062 222.71875 146.546875 224.175781 145.617188 C 225.644531 144.683594 227.359375 144.480469 229.316406 144.964844 C 231.292969 145.449219 232.710938 146.453125 233.566406 147.945312 C 234.425781 149.4375 234.59375 151.226562 234.070312 153.292969 C 233.546875 155.363281 232.5625 156.875 231.105469 157.785156 C 229.652344 158.71875 227.9375 158.941406 225.964844 158.4375 Z M 225.964844 158.4375 "/>
<path style=" stroke:none;fill-rule:evenodd;fill:rgb(100%,100%,100%);fill-opacity:1;" d="M 219.179688 164.8125 C 218.65625 164.589844 218.265625 164.535156 217.984375 164.609375 C 217.707031 164.699219 217.484375 164.945312 217.316406 165.371094 C 216.925781 166.265625 216.941406 167.160156 217.351562 168.039062 C 217.761719 168.914062 218.527344 169.695312 219.664062 170.386719 L 219.402344 170.832031 L 215.117188 168.484375 L 219.234375 158.773438 L 219.664062 158.960938 C 219.457031 159.5 219.421875 159.949219 219.589844 160.285156 C 219.757812 160.621094 220.128906 160.917969 220.726562 161.160156 L 228.164062 164.308594 C 228.757812 164.570312 229.242188 164.625 229.578125 164.515625 C 229.933594 164.402344 230.230469 164.066406 230.472656 163.546875 L 230.902344 163.730469 L 228.085938 170.347656 L 227.660156 170.160156 C 227.863281 169.601562 227.882812 169.15625 227.734375 168.820312 C 227.585938 168.484375 227.210938 168.203125 226.597656 167.945312 Z M 210.976562 177.058594 C 210.492188 177.859375 210.53125 178.699219 211.089844 179.574219 C 211.648438 180.449219 212.691406 181.363281 214.257812 182.3125 C 216.046875 183.394531 217.464844 183.992188 218.527344 184.101562 C 219.589844 184.214844 220.371094 183.859375 220.875 183.023438 C 221.359375 182.21875 221.324219 181.363281 220.746094 180.488281 C 220.167969 179.59375 219.046875 178.660156 217.371094 177.65625 C 215.710938 176.648438 214.351562 176.105469 213.289062 176.015625 C 212.226562 175.902344 211.464844 176.257812 210.976562 177.058594 Z M 212.359375 186.003906 C 210.625 184.960938 209.5625 183.601562 209.1875 181.902344 C 208.796875 180.207031 209.171875 178.457031 210.25 176.628906 C 211.351562 174.804688 212.730469 173.664062 214.390625 173.21875 C 216.066406 172.769531 217.761719 173.070312 219.496094 174.113281 C 221.246094 175.15625 222.308594 176.535156 222.683594 178.214844 C 223.054688 179.890625 222.703125 181.644531 221.601562 183.46875 C 220.503906 185.296875 219.125 186.453125 217.445312 186.898438 C 215.804688 187.347656 214.089844 187.046875 212.359375 186.003906 Z M 200.746094 191.484375 L 203.074219 193.367188 C 203.542969 193.757812 203.953125 193.925781 204.269531 193.90625 C 204.585938 193.886719 204.941406 193.664062 205.351562 193.234375 L 205.722656 193.535156 L 201.679688 198.527344 L 201.304688 198.230469 C 201.566406 197.820312 201.660156 197.464844 201.585938 197.148438 C 201.511719 196.832031 201.25 196.476562 200.785156 196.125 L 198.601562 194.355469 C 198.882812 193.308594 199.199219 192.398438 199.570312 191.613281 C 199.925781 190.8125 200.355469 190.140625 200.820312 189.5625 C 202.144531 187.921875 203.671875 187.027344 205.40625 186.824219 C 207.140625 186.636719 208.816406 187.179688 210.417969 188.5 C 211.277344 189.210938 211.929688 189.992188 212.359375 190.867188 C 212.785156 191.746094 212.972656 192.65625 212.917969 193.625 C 212.859375 194.390625 212.710938 195.117188 212.433594 195.808594 C 212.152344 196.515625 211.761719 197.167969 211.257812 197.800781 C 210.976562 198.136719 210.679688 198.453125 210.363281 198.734375 C 210.046875 199.011719 209.65625 199.292969 209.1875 199.570312 C 209.097656 199.628906 208.945312 199.722656 208.742188 199.816406 C 208.386719 200 208.164062 200.167969 208.050781 200.28125 C 207.921875 200.449219 207.882812 200.597656 207.902344 200.785156 C 207.921875 200.96875 208.035156 201.136719 208.203125 201.304688 L 207.941406 201.621094 L 204.789062 199.070312 L 205.050781 198.734375 C 205.984375 199.199219 206.878906 199.367188 207.734375 199.21875 C 208.613281 199.070312 209.320312 198.660156 209.898438 197.949219 C 210.605469 197.074219 210.773438 196.085938 210.382812 194.96875 C 209.992188 193.851562 209.078125 192.714844 207.660156 191.578125 C 206.1875 190.382812 204.921875 189.675781 203.859375 189.46875 C 202.796875 189.265625 201.9375 189.546875 201.324219 190.328125 C 201.195312 190.496094 201.082031 190.664062 200.988281 190.867188 C 200.894531 191.035156 200.820312 191.261719 200.746094 191.484375 Z M 194.445312 205.070312 L 191.988281 202.332031 C 191.558594 201.847656 191.148438 201.585938 190.792969 201.546875 C 190.441406 201.511719 190.03125 201.679688 189.546875 202.050781 L 189.226562 201.714844 L 194.578125 196.90625 L 194.894531 197.242188 C 194.464844 197.652344 194.261719 198.042969 194.261719 198.417969 C 194.261719 198.789062 194.484375 199.21875 194.914062 199.703125 L 196.871094 201.882812 L 203.09375 203.972656 C 203.617188 204.15625 204.046875 204.214844 204.34375 204.195312 C 204.640625 204.15625 204.921875 204.027344 205.183594 203.804688 L 205.5 204.15625 L 200.542969 208.613281 L 200.222656 208.257812 C 200.484375 208.035156 200.632812 207.828125 200.691406 207.660156 C 200.746094 207.492188 200.726562 207.34375 200.597656 207.214844 C 200.542969 207.15625 200.503906 207.121094 200.429688 207.082031 C 200.375 207.046875 200.28125 207.007812 200.1875 206.972656 L 195.359375 205.238281 L 196.496094 209.878906 C 196.515625 209.992188 196.554688 210.121094 196.609375 210.214844 C 196.664062 210.324219 196.71875 210.417969 196.796875 210.492188 C 196.925781 210.644531 197.113281 210.699219 197.335938 210.625 C 197.558594 210.570312 197.820312 210.402344 198.117188 210.121094 L 198.191406 210.046875 L 198.511719 210.402344 L 195.84375 212.804688 L 195.527344 212.449219 L 195.601562 212.375 C 195.769531 212.226562 195.882812 212.023438 195.9375 211.761719 C 195.992188 211.5 195.957031 211.222656 195.882812 210.847656 Z M 194.445312 205.070312 "/>
<path style=" stroke:none;fill-rule:evenodd;fill:rgb(41.176471%,62.352941%,19.215686%);fill-opacity:1;" d="M 126.007812 48.792969 C 168.652344 48.792969 203.207031 83.367188 203.207031 125.992188 C 203.207031 168.613281 168.652344 203.1875 126.007812 203.1875 C 83.367188 203.1875 48.792969 168.632812 48.792969 126.007812 C 48.792969 83.386719 83.367188 48.792969 126.007812 48.792969 Z M 126.007812 55.914062 C 164.71875 55.914062 196.105469 87.300781 196.105469 126.007812 C 196.105469 164.71875 164.71875 196.105469 126.007812 196.105469 C 87.300781 196.105469 55.914062 164.71875 55.914062 126.007812 C 55.914062 87.300781 87.300781 55.914062 126.007812 55.914062 Z M 126.007812 55.914062 "/>
<path style=" stroke:none;fill-rule:evenodd;fill:rgb(41.176471%,62.352941%,19.215686%);fill-opacity:1;" d="M 126.007812 59.304688 C 162.835938 59.304688 192.714844 89.179688 192.714844 126.007812 C 192.714844 162.835938 162.835938 192.714844 126.007812 192.714844 C 89.179688 192.714844 59.304688 162.835938 59.304688 126.007812 C 59.304688 89.179688 89.179688 59.304688 126.007812 59.304688 Z M 126.007812 59.304688 "/>
<path style=" stroke:none;fill-rule:evenodd;fill:rgb(0%,0%,0%);fill-opacity:1;" d="M 188.761719 145.765625 C 187.792969 147.441406 173.703125 137.976562 172.695312 137.324219 C 171.503906 136.558594 165.6875 133.074219 165.277344 133.167969 C 164.199219 133.410156 163.621094 134.0625 163.582031 134.5625 C 163.488281 135.570312 164.253906 135.550781 168.800781 138.292969 C 170.3125 139.203125 173.238281 141.199219 176.515625 143.304688 C 179.40625 145.167969 187.011719 149.640625 185.722656 151.003906 C 184.625 152.15625 176.871094 146.921875 174.558594 145.617188 C 171.355469 143.789062 163.789062 138.945312 161.550781 137.769531 C 160.621094 137.285156 159.949219 139.914062 159.894531 140.324219 C 159.707031 141.480469 163.5625 143.492188 165.035156 144.367188 C 167.292969 145.710938 169.527344 147.40625 171.464844 148.746094 C 174.46875 150.816406 182.070312 155.699219 180.972656 157.617188 C 180.28125 158.832031 177.039062 155.941406 172.4375 152.828125 C 167.757812 149.660156 161.792969 146.15625 160.9375 145.542969 C 160.265625 145.058594 157.730469 143.25 157.285156 144.964844 C 156.554688 147.742188 159.109375 148.597656 162.054688 150.742188 C 165.035156 152.902344 168.613281 155.34375 169.695312 156.109375 C 173.90625 159.109375 177.578125 162.667969 176.425781 163.84375 C 175.398438 164.886719 173.332031 162.015625 168.949219 158.941406 C 164.179688 155.605469 157.675781 151.691406 157.414062 151.582031 C 155.921875 150.890625 153.203125 149.625 153.386719 147.851562 C 153.574219 146.082031 154.765625 142.726562 155.550781 141.144531 C 155.828125 140.546875 155.585938 139.914062 155.175781 139.613281 C 154.449219 139.09375 154.710938 138.199219 155.066406 137.566406 C 155.738281 136.410156 156.128906 136.109375 157.207031 136.335938 C 158.066406 136.503906 159.164062 134.789062 160.84375 132.867188 C 162.519531 130.96875 163.730469 130.222656 165.242188 129.457031 C 165.707031 129.214844 167.535156 129.4375 167.851562 130.035156 C 167.980469 130.296875 175.4375 136.242188 181.679688 139.6875 C 186.769531 142.558594 189.527344 144.460938 188.761719 145.765625 Z M 188.761719 145.765625 "/>
<path style=" stroke:none;fill-rule:evenodd;fill:rgb(0%,0%,0%);fill-opacity:1;" d="M 74.457031 140.582031 C 76.601562 139.464844 80.777344 137.75 82.84375 138.234375 C 84.914062 138.71875 86.085938 140.0625 86.496094 140.285156 C 86.90625 140.527344 88.15625 140.285156 88.640625 141.105469 C 88.863281 141.460938 89.03125 142.746094 88.957031 145.226562 C 88.921875 146.921875 89.144531 149.230469 88.511719 150.3125 C 87.09375 152.753906 77.757812 158.179688 76.378906 158.402344 C 74.996094 158.625 74.476562 157.9375 72.742188 154.191406 C 71.007812 150.441406 68.457031 148.355469 68.140625 145.820312 C 67.824219 143.527344 72.296875 141.722656 74.457031 140.582031 Z M 82.824219 145.710938 C 82.527344 145.261719 82.808594 144.945312 82.992188 144.589844 C 83.273438 144.070312 83.628906 143.601562 83.8125 143.472656 C 84.296875 143.15625 84.503906 143.789062 85.0625 144.871094 C 85.210938 145.148438 85.546875 145.523438 85.621094 145.800781 C 85.84375 146.566406 84.933594 146.679688 83.90625 146.269531 C 83.402344 146.101562 83.011719 145.988281 82.824219 145.710938 Z M 80.421875 150.480469 C 79.972656 149.882812 80.273438 149.34375 80.457031 148.988281 C 80.644531 148.652344 80.886719 148.226562 81.464844 148.242188 C 82.453125 148.28125 83.050781 148.953125 83.476562 149.121094 C 84.371094 149.472656 84.167969 150.125 83.886719 150.519531 C 83.609375 150.890625 83.125 151.113281 82.898438 151.261719 C 82.507812 151.523438 81.148438 151.429688 80.421875 150.480469 Z M 78.054688 154.039062 C 77.90625 153.78125 78 153.613281 78.203125 153.238281 C 78.445312 152.808594 78.707031 152.363281 78.894531 152.417969 C 79.265625 152.511719 79.472656 153.722656 79.152344 154.097656 C 79.003906 154.246094 78.296875 154.488281 78.054688 154.039062 Z M 77.363281 142.578125 C 77.382812 142.1875 78 142.148438 78.578125 142.039062 C 79.472656 141.871094 80.476562 141.796875 80.777344 141.925781 C 81.277344 142.167969 80.476562 143.828125 79.863281 144.367188 C 79.5625 144.609375 79.265625 144.179688 78.746094 143.789062 C 78.167969 143.324219 77.363281 142.875 77.363281 142.578125 Z M 72.78125 145.167969 C 72.761719 144.460938 73.898438 143.863281 74.4375 144.238281 C 74.699219 144.40625 75.519531 145.039062 76.414062 145.503906 C 77.441406 146.042969 78.519531 146.417969 78.5 146.695312 C 78.464844 147.238281 77.773438 148.730469 77.53125 148.652344 C 77.066406 148.503906 75.894531 147.5 74.738281 146.734375 C 73.785156 146.082031 72.78125 145.710938 72.78125 145.167969 Z M 75.035156 153.539062 C 74.253906 151.65625 72.539062 148.953125 73.617188 149.121094 C 74.699219 149.269531 76.378906 150.648438 76.453125 151.078125 C 76.546875 151.488281 75.390625 154.414062 75.035156 153.539062 Z M 75.035156 153.539062 "/>
<path style=" stroke:none;fill-rule:evenodd;fill:rgb(0%,0%,0%);fill-opacity:1;" d="M 75.332031 163.9375 C 74.605469 162.519531 77.289062 160.789062 78.074219 160.339844 C 78.855469 159.894531 84.167969 156.109375 85.34375 155.34375 C 86.070312 154.878906 88.082031 153.445312 89.851562 152.382812 C 91.175781 151.582031 92.386719 151.226562 92.5 150.628906 C 92.757812 149.25 91.511719 149.789062 91.640625 147.984375 C 91.734375 146.621094 92.851562 146.027344 94.175781 145.28125 C 95.5 144.535156 96.28125 144.421875 96.953125 144.945312 C 97.625 145.484375 97.566406 145.375 97.902344 146.304688 C 98.257812 147.238281 99.003906 146.9375 98.480469 145.300781 C 97.960938 143.660156 95.609375 140.660156 94.957031 139.09375 C 94.304688 137.527344 91.660156 134.078125 91.007812 133.277344 C 90.355469 132.476562 89.441406 130.929688 90.207031 130.015625 C 90.96875 129.101562 92.125 129.308594 93.078125 129.699219 C 94.007812 130.089844 94.882812 131.300781 95.871094 132.757812 C 96.878906 134.210938 97.734375 137.082031 98.386719 138.628906 C 99.023438 140.175781 99.675781 141.570312 100.699219 143.230469 C 101.707031 144.890625 102.769531 146.546875 102.636719 147.984375 C 102.527344 149.398438 101.722656 150.277344 100.328125 150.945312 C 98.929688 151.617188 97.886719 151.46875 97.214844 150.816406 C 96.542969 150.164062 96.375 149.941406 95.929688 149.121094 C 95.460938 148.300781 94.660156 148.449219 95.257812 149.714844 C 95.855469 150.984375 96.972656 153.183594 94.773438 153.871094 C 92.574219 154.5625 91.660156 154.878906 89.984375 155.847656 C 88.304688 156.816406 85.902344 158.195312 84.039062 159.519531 C 82.191406 160.84375 79.65625 162.222656 78.035156 163.304688 C 76.453125 164.441406 75.742188 164.738281 75.332031 163.9375 Z M 75.332031 163.9375 "/>
<path style=" stroke:none;fill-rule:evenodd;fill:rgb(100%,100%,100%);fill-opacity:1;" d="M 124.574219 103.328125 C 126.046875 103.328125 128.246094 102.453125 130.109375 101.109375 C 132.066406 99.691406 133.949219 98.386719 135.738281 98.40625 C 133.875 97.046875 132.570312 97.289062 130.390625 98.707031 C 128.488281 99.933594 126.679688 101.238281 124.089844 101.890625 C 124.015625 101.632812 123.976562 101.445312 123.941406 101.277344 C 125.917969 100.679688 126.792969 100.328125 128.507812 99.191406 C 129.308594 98.648438 129.921875 98.144531 130.519531 97.753906 C 131.226562 97.269531 132.402344 96.878906 132.757812 96.804688 C 132.4375 96.597656 130.332031 96.246094 129.402344 96.582031 C 127.707031 97.195312 126.847656 97.996094 125.617188 98.816406 C 125.113281 99.171875 124.203125 99.5625 123.679688 99.765625 C 122.933594 96.429688 119.226562 95.460938 116.261719 96.5625 C 121.5 97.027344 119.953125 101.835938 121.199219 104.445312 C 122.730469 107.632812 125.730469 107.78125 128.636719 107.277344 C 127.183594 106.941406 125.582031 105.546875 124.574219 103.328125 Z M 124.574219 103.328125 "/>
<path style=" stroke:none;fill-rule:evenodd;fill:rgb(0%,0%,0%);fill-opacity:1;" d="M 112.851562 187.066406 C 112.8125 186.265625 113.039062 183.785156 113.1875 181.269531 C 113.28125 179.5 113.371094 177.207031 113.390625 176.125 C 113.429688 174.1875 113.1875 170.890625 113.617188 170.3125 C 114.042969 169.734375 114.695312 168.949219 115.515625 168.988281 C 116.335938 169.023438 117.25 169.136719 117.304688 168.449219 C 117.34375 167.757812 115.273438 167.871094 114.863281 167.628906 C 114.453125 167.386719 113.222656 167.011719 113.039062 166.023438 C 112.851562 165.035156 112.945312 162.390625 112.925781 161.757812 C 112.90625 161.121094 113.597656 160.453125 113.746094 160.246094 C 113.914062 160.023438 113.933594 159.574219 113.839844 159.40625 C 113.746094 159.242188 113.074219 159.5 112.71875 159.222656 C 112.535156 159.089844 112.328125 158.550781 113.1875 157.433594 C 113.746094 156.707031 114.734375 156.632812 115.421875 156.613281 C 116.914062 156.574219 117.882812 156.929688 118.574219 157.078125 C 119.261719 157.226562 120.734375 158.496094 120.734375 158.90625 C 120.734375 159.351562 120.789062 161.476562 120.714844 162.949219 C 120.640625 164.421875 120.398438 165.261719 120.511719 165.558594 C 120.621094 165.855469 121.238281 166.003906 121.292969 165.128906 C 121.3125 164.851562 121.609375 164.085938 121.648438 163.136719 C 121.667969 162.035156 121.667969 160.9375 121.648438 160.582031 C 121.628906 159.929688 122.058594 159.761719 123.230469 159.800781 C 124.40625 159.816406 124.351562 160.246094 124.648438 160.601562 C 124.929688 160.9375 125.375 160.824219 125.65625 160.636719 C 125.953125 160.453125 126.027344 160.003906 127.238281 159.632812 C 127.964844 159.40625 128.488281 159.632812 128.84375 159.351562 C 129.085938 159.164062 128.917969 158.644531 128.972656 158.160156 C 129.101562 156.984375 128.65625 156.257812 129.980469 156.203125 C 130.96875 156.164062 131.601562 156.554688 131.695312 157.078125 C 131.75 157.414062 132.046875 157.582031 132.289062 157.5625 C 133.183594 157.507812 132.773438 157.171875 133.332031 157.132812 C 133.910156 157.078125 133.652344 157.191406 134.230469 157.5625 C 134.804688 157.9375 135.011719 158.496094 135.125 159.5 C 135.234375 160.507812 134.394531 161.121094 133.539062 161.179688 C 132.699219 161.234375 132.195312 161.382812 132.160156 161.832031 C 132.140625 162.054688 132.289062 162.09375 132.605469 162.109375 C 132.867188 162.109375 133.296875 162.109375 133.632812 162.09375 C 134.339844 162.074219 134.789062 162.222656 134.878906 162.484375 C 135.066406 162.988281 135.140625 163.898438 134.84375 164.402344 C 134.546875 164.90625 133.632812 164.851562 132.980469 164.832031 C 132.328125 164.8125 132.179688 164.945312 132.214844 165.410156 C 132.253906 165.875 132.925781 165.800781 134.339844 165.6875 C 134.917969 165.632812 136.296875 164.886719 136.277344 163.882812 C 136.277344 162.875 136.261719 161.886719 136.261719 160.75 C 136.261719 159.613281 136.167969 158.179688 136.277344 157.636719 C 136.390625 157.097656 136.429688 156.6875 137.65625 156.648438 C 138.085938 156.632812 138.792969 156.910156 139.167969 157.542969 C 139.484375 158.085938 139.484375 158.90625 139.464844 160.042969 C 139.445312 161.011719 139.148438 162.128906 139.09375 162.835938 C 138.945312 164.71875 139.1875 166.210938 138.105469 167.105469 C 137.042969 168 135.960938 168.039062 135.367188 168.203125 C 135.199219 168.242188 134.285156 168.539062 134.023438 168.539062 C 133 168.539062 132.53125 168.523438 132.363281 168.691406 C 132.140625 168.933594 131.878906 169.734375 132.605469 169.917969 C 132.960938 169.996094 134.003906 169.789062 134.730469 170.085938 C 135.289062 170.3125 135.8125 170.292969 136.148438 170.347656 C 136.894531 170.480469 137.136719 170.535156 137.15625 171.300781 C 137.171875 171.953125 137.15625 173.199219 137.15625 173.871094 C 137.15625 174.914062 137.0625 176.089844 137.0625 177.523438 C 137.0625 179.871094 137.171875 181.25 137.136719 182.78125 C 137.117188 184.308594 137.695312 186.878906 137.546875 187.4375 C 137.398438 188 137.191406 189.339844 136.054688 189.359375 C 134.9375 189.378906 135.03125 187.886719 134.957031 186.769531 C 134.878906 185.648438 134.414062 184.121094 134.414062 182.425781 C 134.414062 180.710938 134.359375 174.878906 134.304688 174.375 C 134.246094 173.871094 134.621094 173.515625 133.800781 172.976562 C 132.980469 172.4375 131.636719 172.902344 130.78125 172.269531 C 130.332031 171.933594 129.921875 171.800781 129.847656 170.871094 C 129.773438 169.9375 130.089844 169.210938 129.421875 169.25 C 128.75 169.285156 128.433594 169.507812 128.039062 170.515625 C 127.648438 171.523438 127.6875 173.480469 127.3125 175.082031 C 126.960938 176.683594 127.015625 177.503906 127.054688 179.183594 C 127.089844 180.839844 126.976562 183.097656 127.054688 185.128906 C 127.109375 187.160156 126.679688 187.664062 125.710938 187.699219 C 124.742188 187.738281 124.855469 187.085938 124.777344 185.480469 C 124.722656 183.878906 124.722656 183.394531 124.761719 181.308594 C 124.777344 179.21875 124.816406 177.28125 124.742188 175.808594 C 124.703125 175.210938 125.339844 172.9375 125.265625 171.800781 C 125.171875 170.273438 126.007812 168.578125 126.160156 168.242188 C 126.417969 167.664062 127.40625 167.535156 128.449219 167.199219 C 129.550781 166.84375 129.585938 165.652344 128.84375 165.800781 C 128.097656 165.929688 127.910156 166.171875 127.40625 166.25 C 126.902344 166.324219 126.511719 166.359375 126.195312 166.171875 C 125.878906 165.988281 125.542969 165.96875 125.339844 165.855469 C 125.132812 165.746094 125.132812 165 125.429688 164.777344 C 125.878906 164.421875 126.363281 164.253906 126.699219 164.066406 C 127.144531 163.804688 127.539062 163.472656 127.707031 163.359375 C 127.984375 163.152344 128.785156 163.304688 128.898438 163.097656 C 129.011719 162.894531 129.027344 162.242188 128.859375 162.167969 C 128.691406 162.09375 127.519531 162.167969 126.8125 162.167969 C 126.4375 162.167969 125.859375 162.167969 125.542969 162.167969 C 124.667969 162.148438 124.59375 162.613281 124.40625 163.472656 C 124.144531 164.644531 124.6875 165.875 123.71875 166.492188 C 123.230469 166.789062 122.878906 167.050781 122.597656 167.253906 C 122.414062 167.386719 122.320312 167.609375 122.078125 167.664062 C 121.460938 167.8125 120.53125 167.460938 120.304688 167.886719 C 120.0625 168.296875 120.082031 169.285156 120.269531 169.417969 C 120.714844 169.714844 121.851562 169.101562 122.804688 169.917969 C 123.734375 170.738281 123.773438 171.113281 123.828125 172.136719 C 123.882812 173.179688 123.847656 174.988281 123.882812 176.070312 C 123.921875 177.152344 123.847656 184.753906 123.902344 185.890625 C 123.960938 187.027344 123.511719 187.308594 122.691406 187.347656 C 121.519531 187.402344 121.667969 186.339844 121.628906 185.3125 C 121.574219 183.46875 121.609375 181.027344 121.609375 180.226562 C 121.609375 177.636719 121.667969 175.101562 121.21875 173.628906 C 120.941406 172.660156 121.5 171.316406 120.53125 171.316406 C 119.5625 171.316406 119.765625 171.765625 119.765625 172.601562 C 119.765625 173.441406 119.765625 176.703125 119.746094 178.289062 C 119.726562 179.871094 119.785156 183.675781 119.746094 185.089844 C 119.710938 186.507812 120.007812 188.894531 118.683594 188.816406 C 117.363281 188.742188 117.566406 188.613281 117.527344 186.542969 C 117.472656 184.476562 117.511719 181.402344 117.492188 179.609375 C 117.453125 177.820312 117.472656 174.636719 117.472656 173.609375 C 117.472656 172.601562 117.808594 171.707031 116.953125 171.785156 C 116.09375 171.859375 116.167969 172.359375 116.132812 173.535156 C 116.09375 174.804688 116.039062 176.515625 115.980469 176.851562 C 115.722656 178.773438 115.738281 179.609375 115.683594 181.027344 C 115.664062 181.644531 115.273438 182.386719 115.21875 183.320312 C 115.164062 184.625 115.421875 186.132812 115.105469 186.75 C 114.585938 187.773438 112.871094 187.792969 112.851562 187.066406 Z M 115.21875 159.894531 C 115.3125 159.332031 115.945312 159.316406 116.597656 159.371094 C 117.25 159.425781 117.511719 159.316406 117.492188 160.710938 C 117.472656 162.09375 117.492188 163.265625 117.492188 163.957031 C 117.492188 164.625 117.640625 165.390625 116.953125 165.371094 C 116.261719 165.351562 115.890625 164.867188 116.1875 163.957031 C 116.503906 163.023438 116.933594 162.875 116.988281 162.410156 C 117.042969 161.941406 116.953125 161.625 116.652344 161.363281 C 116.355469 161.105469 116.074219 161.550781 116.113281 160.453125 C 116.113281 160.265625 115.757812 160.320312 115.460938 160.320312 C 115.273438 160.285156 115.164062 160.300781 115.21875 159.894531 Z M 115.21875 159.894531 "/>
<path style=" stroke:none;fill-rule:evenodd;fill:rgb(100%,100%,100%);fill-opacity:1;" d="M 124.480469 113.128906 C 122.300781 111.25 120.175781 109.273438 118.105469 107.203125 C 116.039062 105.136719 114.082031 103.027344 112.199219 100.847656 L 111.957031 100.570312 C 104.484375 109.960938 100.960938 118.480469 103.886719 121.425781 C 106.8125 124.351562 115.328125 120.828125 124.722656 113.355469 Z M 110.875 99.28125 C 101.5 87.894531 96.972656 77.347656 100.53125 73.785156 C 104.089844 70.226562 114.640625 74.753906 126.027344 84.128906 C 137.414062 74.753906 147.964844 70.207031 151.523438 73.785156 C 155.085938 77.347656 150.554688 87.894531 141.179688 99.28125 C 150.554688 110.671875 155.085938 121.21875 151.523438 124.777344 C 147.964844 128.339844 137.414062 123.808594 126.027344 114.417969 C 114.640625 123.792969 104.089844 128.320312 100.53125 124.761719 C 96.972656 121.21875 101.5 110.671875 110.875 99.28125 Z M 127.3125 85.210938 C 129.511719 87.09375 131.75 89.144531 133.949219 91.363281 C 136.148438 93.5625 138.21875 95.796875 140.082031 97.996094 C 147.554688 88.585938 151.078125 80.066406 148.152344 77.140625 C 145.242188 74.214844 136.726562 77.738281 127.3125 85.210938 Z M 112.179688 97.734375 C 114.0625 95.554688 116.039062 93.429688 118.105469 91.363281 C 120.175781 89.292969 122.28125 87.335938 124.460938 85.453125 L 124.742188 85.210938 C 115.347656 77.738281 106.832031 74.214844 103.90625 77.140625 C 100.980469 80.066406 104.5 88.585938 111.976562 97.976562 Z M 140.097656 100.585938 C 138.21875 102.785156 136.167969 105.023438 133.96875 107.222656 C 131.769531 109.421875 129.53125 111.492188 127.332031 113.355469 C 136.746094 120.847656 145.261719 124.351562 148.1875 121.425781 C 151.09375 118.5 147.574219 109.980469 140.097656 100.585938 Z M 114.082031 98.015625 C 115.722656 96.132812 117.4375 94.289062 119.226562 92.480469 C 121.015625 90.691406 122.859375 88.976562 124.742188 87.355469 C 125.171875 86.980469 125.597656 86.628906 126.027344 86.273438 C 128.28125 88.136719 130.574219 90.226562 132.847656 92.5 C 135.125 94.773438 137.191406 97.046875 139.054688 99.300781 C 137.191406 101.558594 135.105469 103.847656 132.847656 106.105469 C 130.574219 108.378906 128.28125 110.445312 126.027344 112.3125 C 125.597656 111.957031 125.1875 111.601562 124.761719 111.25 C 122.878906 109.609375 121.03125 107.894531 119.226562 106.105469 C 117.4375 104.316406 115.722656 102.46875 114.101562 100.585938 C 113.726562 100.160156 113.371094 99.730469 113.019531 99.300781 C 113.355469 98.871094 113.707031 98.445312 114.082031 98.015625 Z M 114.082031 98.015625 "/>
</g>
</svg>
